<svg xmlns="http://www.w3.org/2000/svg" xmlns:xlink="http://www.w3.org/1999/xlink" viewBox="0 0 270 270">
  <style>
    #baloon-inner { transform-box: fill-box; }
    #cabin { transform-box: content-box; }

    #cabinWindow,
    #window-elem { transform-box: fill-box; }

    #skiing,
    #seat,
    #leaf { opacity: 0; }

    #leaf {
    transform-box: fill-box;
    transform-origin:100% 100%;
    }
  </style>

  <g>
    <animate id="airshipAnim"
             from="1"
             to="0"
             dur="1s"
             begin="3s"
             attributeName="opacity"
             fill="freeze"/>

    <g id="airship" opacity="0">
      <animate from="0"
               to="1"
               dur="0.5s"
               attributeName="opacity"
               fill="freeze"/>
      <g id="cabin">
        <animateTransform attributeName="transform"
                          type="translate"
                          values="0 0; -15 20; 0 0"
                          keyTimes="0; 0.5; 1"
                          keySplines="0 0 0.59 1; 0.42 0 1 1"
                          calcMode="spline"
                          dur="1.5s"
                          repeatCount="indefinite"/>
        <animateTransform attributeName="transform"
                          type="scale"
                          values="1 1; 1 0.85; 1 1"
                          keyTimes="0; 0.5; 1"
                          keySplines="0 0 0.59 1; 0.42 0 1 1"
                          calcMode="spline"
                          dur="1.5s"
                          additive="sum"
                          repeatCount="indefinite"/>
        <animateTransform attributeName="transform"
                          type="skewX"
                          values="0; 5; 0"
                          keyTimes="0; 0.5; 1"
                          keySplines="0 0 0.59 1; 0.42 0 1 1"
                          calcMode="spline"
                          dur="1.5s"
                          additive="sum"
                          repeatCount="indefinite"/>
        <path d="M175.44,249.28h48.36a13.27,13.27,0,0,0,13-10.65l3.74-18.32H172.36v25.89A3.09,3.09,0,0,0,175.44,249.28Z"
              transform="translate(-40.77 -69.46)" fill="none" stroke="#fff" stroke-linecap="round"
              stroke-linejoin="round"
              stroke-width="2"/>
        <path d="M235.79,241.69h-9.22a8.31,8.31,0,0,1-8.28-8.31V220.31" transform="translate(-40 -70)" fill="none"
              stroke="#fff" stroke-linecap="round" stroke-miterlimit="10" stroke-width="2"/>
        <path id="cabinWindow"
              d="M204.25,231.88h-2.05a3.45,3.45,0,0,0-3.43,3.45v2.92a3.45,3.45,0,0,0,3.43,3.45h2.05a3.45,3.45,0,0,0,3.43-3.45v-2.92A3.44,3.44,0,0,0,204.25,231.88Z"
              transform="translate(-40 -70)" fill="none" stroke="#fff" stroke-linecap="round" stroke-linejoin="round"
              stroke-width="2">
          <animate id="cabinWindowAnim"
                   to="0"
                   dur="0.05"
                   begin="airshipAnim.begin"
                   fill="freeze"
                   attributeName="opacity"/>
        </path>
        <path
          d="M185.64,231.88h-2.05a3.45,3.45,0,0,0-3.43,3.45v2.92a3.45,3.45,0,0,0,3.43,3.45h2.05a3.45,3.45,0,0,0,3.43-3.45v-2.92A3.45,3.45,0,0,0,185.64,231.88Z"
          transform="translate(-40.77 -69.46)" fill="none" stroke="#fff" stroke-linecap="round" stroke-linejoin="round"
          stroke-width="2"/>
      </g>

      <g id="balloon">
        <g class="backBlades">
          <animateTransform values="0 0; 0 -4; 0 0; 0 4; 0 0"
                            dur="3s"
                            keyTimes="0; 0.25; 0.5; 0.75; 1"
                            keySplines="0 0 0.59 1; 0.42 0 1 1; 0 0 0.59 1; 0.42 0 1 1"
                            calcMode="spline" attributeName="transform" type="translate"
                            repeatCount="indefinite"/>
          <g>
            <path
              d="M123.23,173.34h9.16a3.29,3.29,0,0,1,3.29,3.3v5.71a3.29,3.29,0,0,1-3.29,3.3H115.57a1.32,1.32,0,0,1-1.32-1.32v-2a9,9,0,0,1,9-9"
              transform="translate(-40.77 -69.46)" fill="#068e4d"/>
            <path
              d="M123.23,173.34h9.16a3.29,3.29,0,0,1,3.29,3.3v5.71a3.29,3.29,0,0,1-3.29,3.3H115.57a1.32,1.32,0,0,1-1.32-1.32v-2A9,9,0,0,1,123.23,173.34Z"
              transform="translate(-40.77 -69.46)" fill="none" stroke="#fff" stroke-linecap="round"
              stroke-linejoin="round"
              stroke-width="2"/>
          </g>

          <g>
            <path
              d="M123.23,207.39h9.16a3.29,3.29,0,0,0,3.29-3.3v-5.71a3.29,3.29,0,0,0-3.29-3.3H115.57a1.32,1.32,0,0,0-1.32,1.32v2a9,9,0,0,0,9,9"
              transform="translate(-40.77 -69.46)" fill="#068e4d"/>
            <path
              d="M123.23,207.39h9.16a3.29,3.29,0,0,0,3.29-3.3v-5.71a3.29,3.29,0,0,0-3.29-3.3H115.57a1.32,1.32,0,0,0-1.32,1.32v2A9,9,0,0,0,123.23,207.39Z"
              transform="translate(-40.77 -69.46)" fill="none" stroke="#fff" stroke-linecap="round"
              stroke-linejoin="round"
              stroke-width="2"/>
          </g>
        </g>

        <g>
          <path
            d="M205,227.08c43.38,0,74.86-15.55,74.86-37s-31.48-37-74.86-37c-27.94,0-55.36,13.53-73.46,24.87a14.3,14.3,0,0,0,0,24.21c18.09,11.33,45.52,24.87,73.46,24.87"
            transform="translate(-40.77 -69.46)" fill="#068e4d"/>
          <path
            d="M205,227.08c43.38,0,74.86-15.55,74.86-37s-31.48-37-74.86-37c-27.94,0-55.36,13.53-73.46,24.87a14.3,14.3,0,0,0,0,24.21C149.63,213.54,177.06,227.08,205,227.08Z"
            transform="translate(-40.77 -69.46)" fill="none" stroke="#fff" stroke-width="2"/>

          <g id="baloon-inner">
            <path
              d="M132.18,195.12c16.74,4.27,44.58,10,72.81,10,44.14,0,72.75-6.32,73.6-14.18-0.86,19.34-29.45,34.86-73.6,34.86-28.23,0-56.07-14.19-72.81-24.68a12.88,12.88,0,0,1-6-10.18c0.26,1.61,2.26,3.18,6,4.14"
              transform="translate(-40.77 -69.46)" fill="#068e4d"/>
            <g>
              <animateTransform attributeName="transform"
                                type="translate"
                                values="0 0; -10 -10; 0 0; -10 13; 0 0 "
                                keyTimes="0; 0.25; 0.5; 0.75; 1"
                                keySplines="0 0 0.59 1; 0.42 0 1 1; 0 0 0.59 1; 0.42 0 1 1"
                                calcMode="spline"
                                dur="3s"
                                repeatCount="indefinite"/>
              <animateTransform attributeName="transform"
                                type="scale"
                                values="1 1; 1 1.1; 1 1; 1 0.85; 1 1"
                                keyTimes="0; 0.25; 0.5; 0.75; 1"
                                keySplines="0 0 0.59 1; 0.42 0 1 1; 0 0 0.59 1; 0.42 0 1 1"
                                calcMode="spline"
                                dur="3s"
                                additive="sum"
                                repeatCount="indefinite"/>
              <animateTransform attributeName="transform"
                                type="skewX"
                                values="0; 5; 0; 5; 0"
                                keyTimes="0; 0.25; 0.5; 0.75; 1"
                                keySplines="0 0 0.59 1; 0.42 0 1 1; 0 0 0.59 1; 0.42 0 1 1"
                                calcMode="spline"
                                dur="3s"
                                additive="sum"
                                repeatCount="indefinite"/>
              <path
                d="M205,176.09c-28.23,0-56.07,5.76-72.81,10-3.95,1-6,2.66-6.08,4.34A12.93,12.93,0,0,1,132.18,179c16.74-10.5,44.58-24.68,72.81-24.68,44.81,0,73.64,16,73.64,35.75,0,0.12,0,.24,0,0.37-0.37-7.95-29.1-14.37-73.63-14.37"
                transform="translate(-40.77 -69.46)" fill="#36e69a">
              </path>
              <path id="balloon-center"
                    d="M132.18,186.12c16.74-4.27,44.58-10,72.81-10,44.53,0,73.26,6.43,73.61,14.38,0,0.17,0,.34,0,0.51-0.85,7.86-29.45,14.17-73.6,14.17-28.23,0-56.07-5.76-72.81-10-3.79-1-5.79-2.53-6-4.13l0-.51c0.13-1.69,2.15-3.36,6.1-4.37"
                    transform="translate(-40.77 -69.46)" fill="#25b774"/>
            </g>
          </g>
        </g>

        <g class="frontBlades">
          <animateTransform values="0 0; 0 4; 0 0; 0 -4; 0 0 "
                            dur="3s"
                            keyTimes="0; 0.25; 0.5; 0.75; 1"
                            keySplines="0 0 0.59 1; 0.42 0 1 1; 0 0 0.59 1; 0.42 0 1 1"
                            calcMode="spline" attributeName="transform" type="translate"
                            repeatCount="indefinite"/>
          <g>
            <path
              d="M123.23,173.34h9.16a3.29,3.29,0,0,1,3.29,3.3v5.71a3.29,3.29,0,0,1-3.29,3.3H115.57a1.32,1.32,0,0,1-1.32-1.32v-2a9,9,0,0,1,9-9"
              transform="translate(-40.77 -69.46)" fill="#068e4d"/>
            <path
              d="M123.23,173.34h9.16a3.29,3.29,0,0,1,3.29,3.3v5.71a3.29,3.29,0,0,1-3.29,3.3H115.57a1.32,1.32,0,0,1-1.32-1.32v-2A9,9,0,0,1,123.23,173.34Z"
              transform="translate(-40.77 -69.46)" fill="none" stroke="#fff" stroke-linecap="round"
              stroke-linejoin="round"
              stroke-width="2"/>
          </g>

          <g>
            <path
              d="M123.23,207.39h9.16a3.29,3.29,0,0,0,3.29-3.3v-5.71a3.29,3.29,0,0,0-3.29-3.3H115.57a1.32,1.32,0,0,0-1.32,1.32v2a9,9,0,0,0,9,9"
              transform="translate(-40.77 -69.46)" fill="#068e4d"/>
            <path
              d="M123.23,207.39h9.16a3.29,3.29,0,0,0,3.29-3.3v-5.71a3.29,3.29,0,0,0-3.29-3.3H115.57a1.32,1.32,0,0,0-1.32,1.32v2A9,9,0,0,0,123.23,207.39Z"
              transform="translate(-40.77 -69.46)" fill="none" stroke="#fff" stroke-linecap="round"
              stroke-linejoin="round"
              stroke-width="2"/>
          </g>
        </g>
      </g>
    </g>

    <g id="cloudSmall" opacity="0">
      <animateTransform dur="2s" attributeName="transform" from="25, 0" to="-150,0" additive="sum" type="translate"
                        repeatCount="indefinite"/>
      <animate attributeName="opacity"
               values="0; 1; 1; 0"
               keySplines="0.26 0.83 0.32 1.05; 0 0 1 1; 0.26 0.83 0.32 1.05;"
               dur="2s" fill="freeze" calcMode="spline" repeatCount="indefinite"/>

      <line x1="190" y1="47" x2="252" y2="47" fill="none" stroke="#fff" stroke-linecap="round"
            stroke-miterlimit="10" stroke-width="2">
        <animateTransform dur="2s" attributeName="transform" from="0, 0" to="20,0" additive="sum" type="translate"
                          repeatCount="indefinite"/>
      </line>
      <path d="M41.77,97.54H77.06a12.4,12.4,0,1,1,24.8,0h17.93" transform="translate(125 -59.46)" fill="none"
            stroke="#fff" stroke-linecap="round" stroke-miterlimit="10" stroke-width="2"/>
    </g>

    <g id="cloud-big" opacity="0">
      <animateTransform dur="2s" attributeName="transform" from="15, 0" to="-160,0" begin="1s" type="translate"
                        repeatCount="indefinite"/>
      <animate attributeName="opacity" values="0; 1; 1; 0"
               keySplines="0.26 0.83 0.32 1.05; 0 0 1 1; 0.26 0.83 0.32 1.05;"
               dur="2s" fill="freeze" begin="1s" calcMode="spline" repeatCount="indefinite"/>

      <line x1="218.19" y1="23.72" x2="257.97" y2="23.72" fill="none" stroke="#fff" stroke-linecap="round"
            stroke-miterlimit="10" stroke-width="2">
        <animateTransform dur="2s" attributeName="transform" from="0, 0" to="20,0" begin="1s" additive="sum"
                          type="translate"
                          repeatCount="indefinite"/>
      </line>
      <path d="M278.75,82.91H251.39a12.4,12.4,0,1,0-24.8,0H208.65" transform="translate(-40.77 -69.46)" fill="none"
            stroke="#fff" stroke-linecap="round" stroke-miterlimit="10" stroke-width="2"/>
      <line x1="246.24" y1="13.45" x2="268.43" y2="13.45" fill="none" stroke="#fff" stroke-linecap="round"
            stroke-miterlimit="10" stroke-width="2"/>
    </g>

    <g id="plume">
      <line x1="65.48" y1="110.03" x2="43.28" y2="110.03" fill="none" stroke="#fff" stroke-linecap="round"
            stroke-miterlimit="10" stroke-width="2">
        <animate attributeName="x2"
                 values="47; 41; 47"
                 dur="0.17s"
                 repeatCount="indefinite"
                 calcMode="paced"/>
      </line>
      <line x1="65.48" y1="131.77" x2="43.28" y2="131.77" fill="none" stroke="#fff" stroke-linecap="round"
            stroke-miterlimit="10" stroke-width="2">
        <animate attributeName="x2"
                 values="47; 40; 47"
                 dur="0.18s"
                 repeatCount="indefinite"
                 calcMode="paced"/>
      </line>
      <line x1="65.48" y1="121.52" x2="28" y2="121.52" fill="none" stroke="#fff" stroke-linecap="round"
            stroke-miterlimit="10" stroke-width="2">
        <animate attributeName="x2"
                 values="32; 24; 32"
                 dur="0.2s"
                 repeatCount="indefinite"
                 calcMode="paced"/>
      </line>
    </g>
  </g>

  <g opacity="0">
    <animate id="appear"
             from="0"
             to="1"
             dur="0.1"
             begin="airshipAnim.begin"
             attributeName="opacity"
             fill="freeze"/>

    <g id="skiing" transform="translate(-100 0)">
      <animateTransform dur="1s"
                        begin="appear.begin + 0.1s"
                        attributeName="transform"
                        to="0, 0"
                        keySplines="0.17, 0.67, 0.67,1"
                        fill="freeze"
                        calcMode="spline"
                        type="translate"/>
      <animate attributeName="opacity"
               from="0"
               to="1"
               dur="0.3s"
               begin="appear.begin + 0.8s"
               calcMode="spline"
               fill="freeze"
               keySplines=".5,.04,.41,1.08"/>

      <path
        d="M91.14,327.79a2.2,2.2,0,0,1-2-2.36l13.66-193.17c1.1-15.49-4.8-21.92-8.75-24.47a1.35,1.35,0,0,1,.53-2.45C103,104,122.18,104,120,134.19L106.43,326.67a2.2,2.2,0,0,1-2.35,2Z"
        transform="translate(-50 -70)" fill="#fff"/>
      <path
        d="M124.5,328.17a2.2,2.2,0,0,1-2.17-2.23l2.24-193.63c0.19-15.53-6.07-21.61-10.16-23.91a1.35,1.35,0,0,1,.39-2.47c8.36-1.9,27.49-3,27.15,27.28l-2.25,192.93a2.2,2.2,0,0,1-2.22,2.18Z"
        transform="translate(-50 -70)" fill="#fff"/>
    </g>

    <g id="seat" transform="translate(-90 35)">
      <animateTransform dur="1s"
                        begin="appear.begin"
                        attributeName="transform"
                        to="0, 35"
                        keySplines="0.17, 0.67, 0.67,1"
                        fill="freeze"
                        calcMode="spline"
                        type="translate"/>
      <animate attributeName="opacity"
               from="0" to="1"
               dur="0.3s"
               begin="appear.begin + 0.5s"
               calcMode="spline"
               fill="freeze"
               keySplines=".5,.04,.41,1.08"/>

      <path d="M257.5,259.82H196.76V245.63h55.09a9.92,9.92,0,0,1,9.9,9.93,4.26,4.26,0,0,1-4.25,4.25"
            transform="translate(-54.48 -104.9)" fill="#a67ee5"/>
      <path d="M257.5,259.82H196.76V245.63h55.09a9.92,9.92,0,0,1,9.9,9.93A4.26,4.26,0,0,1,257.5,259.82Z"
            transform="translate(-54.48 -104.9)" fill="none" stroke="#fff" stroke-miterlimit="10" stroke-width="2"/>
      <polygon points="130.99 223.41 117.02 223.41 110.71 181.82 124.68 181.82 130.99 223.41" fill="#a67ee5"/>
      <polygon points="130.99 223.41 117.02 223.41 110.71 181.82 124.68 181.82 130.99 223.41" fill="none" stroke="#fff"
               stroke-miterlimit="10" stroke-width="2"/>
      <polygon points="180.54 223.41 166.58 223.41 160.28 181.82 174.24 181.82 180.54 223.41" fill="#a67ee5"/>
      <polygon points="180.54 223.41 166.58 223.41 160.28 181.82 174.24 181.82 180.54 223.41" fill="none" stroke="#fff"
               stroke-miterlimit="10" stroke-width="2"/>
      <path
        d="M281.33,272.45H225.44a5.59,5.59,0,0,1-5.53-4.77l-10.86-72.24a17.71,17.71,0,0,0-12.49-31.31H141.48L141.16,267l15.77,23.35,47.19,8.39a12.3,12.3,0,0,0,4.22.75h73a13.53,13.53,0,0,0,0-27.06"
        transform="translate(-54.48 -104.9)" fill="#a67ee5"/>
      <path
        d="M281.33,272.45H225.44a5.59,5.59,0,0,1-5.53-4.77l-10.86-72.24a17.71,17.71,0,0,0-12.49-31.31H141.48L141.16,267l15.77,23.35,47.19,8.39a12.3,12.3,0,0,0,4.22.75h73A13.53,13.53,0,0,0,281.33,272.45Z"
        transform="translate(-54.48 -104.9)" fill="none" stroke="#fff" stroke-miterlimit="10" stroke-width="2"/>
      <path
        d="M162.42,267.69l-10.86-72.24a17.71,17.71,0,1,0-29-13.61,18,18,0,0,0,.79,5.25L138.65,289a12.36,12.36,0,0,0,12.21,10.54h73a13.53,13.53,0,0,0,0-27.05H167.95a5.62,5.62,0,0,1-5.53-4.78"
        transform="translate(-54.48 -104.9)" fill="#a67ee5"/>
      <path
        d="M162.42,267.69l-10.86-72.24a17.71,17.71,0,1,0-29-13.61,18,18,0,0,0,.79,5.25L138.65,289a12.36,12.36,0,0,0,12.21,10.54h73a13.53,13.53,0,0,0,0-27.05H167.95A5.62,5.62,0,0,1,162.42,267.69Z"
        transform="translate(-54.48 -104.9)" fill="none" stroke="#fff" stroke-miterlimit="10" stroke-width="2"/>
      <path d="M206.26,259.82h-72l-2.13-14.19H200.6a9.92,9.92,0,0,1,9.9,9.93,4.26,4.26,0,0,1-4.25,4.25"
            transform="translate(-54.48 -104.9)" fill="#a67ee5"/>
      <path d="M206.26,259.82h-72l-2.13-14.19H200.6a9.92,9.92,0,0,1,9.9,9.93A4.26,4.26,0,0,1,206.26,259.82Z"
            transform="translate(-54.48 -104.9)" fill="none" stroke="#fff" stroke-miterlimit="10" stroke-width="2"/>
      <line x1="97.08" y1="90.54" x2="154.57" y2="90.54" fill="none" stroke="#fff" stroke-linecap="round"
            stroke-miterlimit="10" stroke-width="2"/>
    </g>

    <g id="leaf" transform="translate(-100 30)">
      <animateTransform id="leafTransform"
                        dur="1s"
                        begin="appear.begin + 0.1s"
                        attributeName="transform"
                        to="10, 35"
                        keySplines="0.37,-0.04,0.63,1.07"
                        fill="freeze"
                        calcMode="spline"
                        type="translate"/>
      <animateTransform dur="1s"
                        values="0; 10; -5; 2; -1; 0"
                        keyTimes="0; 0.2; 0.5; 0.75; 0.9; 1"
                        keySplines="0.35, 0.06, 0.44, 0.91; 0.35, 0.06, 0.44, 0.91; 0.35, 0.06, 0.44, 0.91; 0.07,0,0.02,0.4; 0.07,0,0.02,0.4"
                        begin="leafTransform.end - 0.3s"
                        fill="freeze"
                        additive="sum"
                        calcMode="spline"
                        type="rotate"
                        attributeName="transform"/>
      <animate attributeName="opacity"
               from="0" to="1"
               dur="0.3s"
               begin="appear.begin + 0.8s"
               calcMode="spline"
               fill="freeze"
               keySplines=".5,.04,.41,1.08"/>

      <path
        d="M79.18,194A131,131,0,0,1,94.77,220.9a255,255,0,0,1-20.08-23.55,259,259,0,0,1-17.07-25.88A131.72,131.72,0,0,1,79.18,194"
        transform="translate(-54.48 -104.9)" fill="#36e69a"/>
      <path
        d="M80.94,214.39a127.19,127.19,0,0,1,22.8,20.49A242.09,242.09,0,0,1,77.9,219.17a235.86,235.86,0,0,1-23.42-18.7,119.82,119.82,0,0,1,26.46,13.92"
        transform="translate(-54.48 -104.9)" fill="#36e69a"/>
      <path
        d="M93.66,205.48a258.38,258.38,0,0,0,10.08,29.39,125.63,125.63,0,0,0-4.5-30.52,135.9,135.9,0,0,0-12.06-29.44,260.33,260.33,0,0,0,6.47,30.57"
        transform="translate(-54.48 -104.9)" fill="#36e69a"/>
      <path
        d="M107.32,213.52a250.14,250.14,0,0,0,2.06,30.67,119.93,119.93,0,0,0,3.76-30.05,131.24,131.24,0,0,0-4-31.36,238.1,238.1,0,0,0-1.87,30.74"
        transform="translate(-54.48 -104.9)" fill="#25b774"/>
      <path
        d="M83.08,229.56a121.93,121.93,0,0,1,26.29,14.64A225.91,225.91,0,0,1,81.21,235a228.11,228.11,0,0,1-26.37-12.69,113.61,113.61,0,0,1,28.25,7.29"
        transform="translate(-54.48 -104.9)" fill="#25b774"/>
      <path
        d="M88.06,243.83A118.11,118.11,0,0,1,115.62,255a211,211,0,0,1-28.78-5.6,220.87,220.87,0,0,1-27.42-9.33,114,114,0,0,1,28.65,3.73"
        transform="translate(-54.48 -104.9)" fill="#25b774"/>
      <path
        d="M118.71,224.79a238,238,0,0,0-3.1,30.25,117.11,117.11,0,0,0,8.82-28.54,127.44,127.44,0,0,0,1.42-31.19,213.92,213.92,0,0,0-7.15,29.48"
        transform="translate(-54.48 -104.9)" fill="#25b774"/>
      <path
        d="M98.86,262a118.24,118.24,0,0,1,27.07,12.34,212.3,212.3,0,0,1-28.53-6.79,220.78,220.78,0,0,1-27-10.45A114.06,114.06,0,0,1,98.86,262"
        transform="translate(-54.48 -104.9)" fill="#068e4d"/>
      <path
        d="M130.27,244.29a236.56,236.56,0,0,0-4.34,30.1,116.94,116.94,0,0,0,10-28.16,127.42,127.42,0,0,0,2.71-31.1,214.43,214.43,0,0,0-8.36,29.16"
        transform="translate(-54.48 -104.9)" fill="#068e4d"/>
      <path
        d="M108.9,280.69a118.21,118.21,0,0,1,26.54,13.47,213.62,213.62,0,0,1-28.23-8,221.65,221.65,0,0,1-26.55-11.57,113.82,113.82,0,0,1,28.24,6.08"
        transform="translate(-54.48 -104.9)" fill="#068e4d"/>
      <path
        d="M141,264.26a236.09,236.09,0,0,0-5.58,29.9,117.46,117.46,0,0,0,11.15-27.73,127.2,127.2,0,0,0,4-31A214.24,214.24,0,0,0,141,264.26"
        transform="translate(-54.48 -104.9)" fill="#068e4d"/>
      <path d="M92.62,217.67A529.26,529.26,0,0,1,149.48,328" transform="translate(-54.48 -104.9)" fill="none"
            stroke="#36e69a" stroke-linecap="round" stroke-linejoin="round" stroke-width="2"/>
    </g>
  </g>

  <g id="mountain">
    <path
      d="M289.94,327.88H244.88L212.8,296.58
      a1.89,1.89,0,0,0-2.44,0l-10.2,10.23
      a1.72,1.72,0,0,1-2.25,0l-19-20.17
      a2.4,2.4,0,0,0-3.1,0l-26.42,25.64
      a1.71,1.71,0,0,1-2.25,0l-2.63-2.92
      a1.71,1.71,0,0,0-2.31,0
      L124.63,329H80.78"
      transform="translate(-50 -69)" fill="none" stroke="#fff" stroke-linecap="round" stroke-miterlimit="10"
      stroke-width="2">
      <animate dur="0.5s"
               begin="airshipAnim.begin"
               fill="freeze"
               attributeName="d"
               from="M289.94,327.88H244.88L212.8,296.58
                a1.89,1.89,0,0,0-2.44,0l-10.2,10.23
                a1.72,1.72,0,0,1-2.25,0l-19-20.17
                a2.4,2.4,0,0,0-3.1,0l-26.42,25.64
                a1.71,1.71,0,0,1-2.25,0l-2.63-2.92
                a1.71,1.71,0,0,0-2.31,0
                L124.63,329H80.78"
               to="M289.94,327.88H244.88L212.8,329
                a0,0,0,0,0-0,0l-0,0
                a0,0,0,0,0-0,0l-19-0
                a0,0,0,0,0-0,0l-0,0
                a0,0,0,0,0-0,0l-52-0
                a0,0,0,0,0-0,0
                L124.63,329H80.78"/>
    </path>
  </g>

  <g id="window-elem" opacity="0">
    <animateTransform dur="1s"
                      begin="cabinWindowAnim.end"
                      from="-32 80"
                      to="5 0"
                      fill="freeze"
                      additive="sum"
                      attributeName="transform"
                      type="translate"/>
    <animateTransform id="windowAnimation"
                      dur="1s"
                      begin="cabinWindowAnim.end"
                      from="0.2 0.15"
                      to="1 1"
                      fill="freeze"
                      additive="sum"
                      attributeName="transform"
                      type="scale"/>
    <animate attributeName="opacity"
             from="0"
             to="1"
             fill="freeze"
             begin="cabinWindowAnim.end"
             dur="0.05s" />
    <path
      d="M275,225.43H257.87a17.6, 17.6, 0, 0, 1-17.52-17.58V170a17.6, 17.6, 0, 0, 1, 17.52-17.58H275A17.6, 17.6, 0, 0, 1, 292.51, 170v37.83A17.61, 17.61, 0, 0, 1, 275, 225.43Z"
      transform="translate(-50 -70)" fill="none" stroke="#fff" stroke-width="2">
      <animate from="6"
               to="2"
               dur="1s"
               begin="cabinWindowAnim.end"
               attributeName="stroke-width"/>
    </path>
  </g>

  <defs>
    <clipPath id="window" transform="translate(0 -70)">
      <path
        d="M275,225.43H257.87a17.6,17.6,0,0,1-17.52-17.58V170a17.6,17.6,0,0,1,17.52-17.58H275A17.6,17.6,0,0,1,292.51,170v37.83A17.61,17.61,0,0,1,275,225.43Z"
        transform="translate(-50 -70)"/>
    </clipPath>
  </defs>

  <g transform="translate(5 70)" clip-path="url(#window)">
    <g transform="translate(245 30)  scale(0.8)">
      <animateTransform id="cloud1"
                        dur="3s"
                        begin="windowAnimation.end"
                        from="50, 0"
                        to="-200,0"
                        attributeName="transform"
                        additive="sum"
                        type="translate"
                        repeatCount="indefinite"/>
      <line x1="28.18" y1="38.34" x2="91.09" y2="38.34" fill="none" stroke="#fff" stroke-linecap="round"
            stroke-miterlimit="10" stroke-width="2"/>
      <path d="M41.77,97.54H77.06a12.4,12.4,0,1,1,24.8,0h17.93" transform="translate(-40.77 -69.46)" fill="none"
            stroke="#fff" stroke-linecap="round" stroke-miterlimit="10" stroke-width="2"/>
    </g>

    <g transform="translate(110 25) scale(0.8)">
      <animateTransform dur="3s" begin="cloud1.begin + 1.5s" attributeName="transform" from="50, 0" to="-200,0"
                        additive="sum" type="translate"
                        repeatCount="indefinite"/>
      <line x1="218.19" y1="23.72" x2="257.97" y2="23.72" fill="none" stroke="#fff" stroke-linecap="round"
            stroke-miterlimit="10" stroke-width="2"/>
      <path d="M278.75,82.91H251.39a12.4,12.4,0,1,0-24.8,0H208.65" transform="translate(-40.77 -69.46)" fill="none"
            stroke="#fff" stroke-linecap="round" stroke-miterlimit="10" stroke-width="2"/>
      <line x1="246.24" y1="13.45" x2="268.43" y2="13.45" fill="none" stroke="#fff" stroke-linecap="round"
            stroke-miterlimit="10" stroke-width="2"/>
    </g>
  </g>
</svg>
